<svg id="Figurer_copy" data-name="Figurer copy" xmlns="http://www.w3.org/2000/svg" width="150" height="250" viewBox="0 0 150 250">
  <defs>
    <style>
      .cls-1 {
        fill: #fff;
      }

      .cls-2 {
        fill: #4c332e;
      }

      .cls-3 {
        fill: #8e7873;
      }

      .cls-4 {
        fill: #92d0fc;
      }

      .cls-5 {
        fill: #382622;
      }
    </style>
  </defs>
  <title>Baggrundsdesign_RT_02_cj_2</title>
  <rect class="cls-1" width="150" height="250"/>
  <g>
    <g>
      <path class="cls-2" d="M13.53,112c11.54-6.55,26-4.18,54.8-18.51,24.23-11.09,44.73-18.15,63.92-9.36,9.71,4.24,14.93,20.54,10.15,34.13S124.13,136.11,113.69,130c-11.61-6.57-24.52-3.56-33.71-1.27-20.16,6-44.15,23.76-50.82,27.66C7.19,169.21,8.31,115.26,13.53,112Z"/>
      <path class="cls-3" d="M1.12,220C-.1,204.83,8,196,24.67,194c26.8-3.9,36-27,38.61-38.05,5.64-23-.32-49.62-5.7-75.85-2.37-12.28,3.1-25.9,8.88-30.34S78.75,52,84.1,62.68c14.69,31.66,32.76,56,34.11,86.77.7,15.79-13.14,85.19-46.56,91.88C40.92,247.48,4.07,256.18,1.12,220Z"/>
      <path class="cls-4" d="M142.36,118.85c-11-25.35-41.09-28.47-65-23.76-38.15,7.5-54,27.8-65,53.16C-4.53,63.19,22.36,11.91,77.71,10,139.83,7.91,155.49,95.09,142.36,118.85Z"/>
    </g>
    <g>
      <g>
        <circle class="cls-1" cx="40.42" cy="68.2" r="15.01"/>
        <g>
          <path class="cls-5" d="M55.43,68.2A15,15,0,1,1,36.2,53.8v.54c0,4.89-1.54,8.85,5.38,11.16,5.89,2,9.29-3.9,10.86-6.31A14.93,14.93,0,0,1,55.43,68.2Z"/>
          <path class="cls-5" d="M40.42,83.59a15.39,15.39,0,0,1-4.33-30.16l.52-.15v1.06a21.15,21.15,0,0,1-.08,2.28c-.2,3.87-.34,6.67,5.21,8.52,5.31,1.77,8.47-3.14,10.16-5.78l.55-.84.33.44A15.4,15.4,0,0,1,40.46,83.59ZM35.83,54.32a14.61,14.61,0,1,0,16.65,5.55c-1.7,2.65-5.19,7.94-11,6-6.1-2-5.93-5.4-5.72-9.29,0-.72.07-1.47.07-2.24Z"/>
        </g>
      </g>
      <g>
        <circle class="cls-1" cx="91.08" cy="49.44" r="15.01"/>
        <g>
          <path class="cls-5" d="M106.08,49.44A15,15,0,1,1,86.83,35v.55c0,4.89-1.54,8.85,5.39,11.16,5.89,2,9.29-3.9,10.86-6.31A15,15,0,0,1,106.08,49.44Z"/>
          <path class="cls-5" d="M91.08,64.83a15.39,15.39,0,0,1-4.33-30.16l.52-.16v1.07a21.15,21.15,0,0,1-.08,2.28c-.2,3.87-.35,6.67,5.2,8.52,5.31,1.76,8.47-3.14,10.17-5.78l.55-.84.33.44A15.4,15.4,0,0,1,91.12,64.83ZM86.46,35.56a14.61,14.61,0,1,0,16.65,5.55c-1.71,2.65-5.19,7.94-11,6-6.1-2-5.93-5.4-5.73-9.29,0-.72.08-1.47.08-2.24Z"/>
        </g>
      </g>
      <path class="cls-5" d="M69.08,85.24a9.6,9.6,0,0,1-2.39-.3A9.22,9.22,0,0,1,60.08,78,2.5,2.5,0,0,1,64.9,76.7a4.35,4.35,0,0,0,3,3.4,6.45,6.45,0,0,0,5.8-1.92,5.73,5.73,0,0,0,1.46-5.75A2.5,2.5,0,0,1,80,71.09a10.69,10.69,0,0,1-2.7,10.59A11.75,11.75,0,0,1,69.08,85.24Z"/>
    </g>
  </g>
</svg>
