<?xml version="1.0" encoding="utf-8"?>
<!-- Generator: Adobe Illustrator 24.1.0, SVG Export Plug-In . SVG Version: 6.00 Build 0)  -->
<svg version="1.1" id="Figurer_copy" xmlns="http://www.w3.org/2000/svg" xmlns:xlink="http://www.w3.org/1999/xlink" x="0px"
	 y="0px" viewBox="0 0 300 400" style="enable-background:new 0 0 300 400;" xml:space="preserve">
<style type="text/css">
	.st0{fill:#D8D8D8;}
	.st1{fill:#F9A58C;}
	.st2{fill:#FFFFFF;}
	.st3{fill:#FF0018;}
	.st4{fill:none;stroke:#D3ECFE;stroke-width:18;stroke-linecap:round;stroke-miterlimit:10;}
	.st5{fill:none;stroke:#92D0FC;stroke-width:2;stroke-linecap:round;stroke-miterlimit:10;}
</style>
<rect y="0" class="st0" width="300" height="400"/>
<g>
	<path class="st1" d="M198.8,393.9c14.3-49,5.8-117.2-18.6-180.9c-26.3,0.8-47,13.3-74.1,12c22.2,60,18.8,114.4-5,153.9
		c4.7,3.4,9.4,6.6,14,9.8c3,2.1,6,4.2,8.9,6.3C149,395.4,173.8,394.8,198.8,393.9z"/>
	<path d="M154.4,366.2c0.8-16.8-3.3-29.8-3.8-30c0-0.2,5.5,6.4,8.7,19.4C157.2,358.9,155.5,362.5,154.4,366.2z"/>
	<path d="M165.5,345.9c-0.5,0-3.9,4.3-4.4,12.8c-0.3-1-0.7-2-1.1-3C161.8,348.8,165.1,346,165.5,345.9z"/>
	<path class="st2" d="M71,205.8c12.8,11.8-13.2,45.2-0.4,45.4c0,0,14.7-5,17.6-5.3c3-0.2,5.6,2,5.9,5l1.1,13
		c10.9-0.9,21.7-2.6,32.3-5.2l-3.6-13.2c-0.1-0.5-0.2-0.9-0.2-1.4c0-2.6,1.9-4.9,4.5-5.3c2.8-0.4,5.5,1.4,6.2,4.1l3.6,13.2
		c9-2.5,17.2-5.1,23.6-7.3c3.1-1.1,6.7-2.5,10.5-4.3l-7.7-13.4c-1.6-2.5-0.8-5.9,1.7-7.5s5.9-0.8,7.5,1.7l0,0l0.2,0.3l8.1,14
		c8.7-4.7,17-10.2,24.8-16.3l-10.6-10.6c-2.1-2.1-2.1-5.5,0-7.7l0,0c1.8-1.5,3.8-2.7,5.9-3.8c4-2.1,5.6-7.1,3.5-11.2c0,0,0,0,0,0
		c-0.4-0.8-0.9-1.5-1.6-2.1c-3.8-3.7-22.6-6.8-21-16.5c12.3-71.8-10-194.1-129.5-127C-36,94.5,26.9,165.1,71,205.8z"/>
	<path d="M264.8,275.8c2.6,1.6,6.9-0.6,9.5-5s2.6-9.1-0.1-10.7c-0.9-0.5-30.3-6.9-30.3-6.9S263.6,275,264.8,275.8z"/>
	<path d="M15.4,268.2c-2.1,1.5-1.5,6,1.4,10.2s6.9,6.4,9,4.9c0.7-0.5,14.6-21.9,14.6-21.9S16.4,267.5,15.4,268.2z"/>
	<path d="M288.4,186.8c3.1,0,5.6-4.1,5.7-9.1s-2.5-9.2-5.5-9.2c-1,0-29.6,9.6-29.6,9.6S287,186.8,288.4,186.8z"/>
	<path d="M150.5,196.4c-1.7-3.2-25.9-9.7-25.9-9.7l-4.6,19.5c0,0.4,0,0.9,0,1.4c0.1,1.5,0.5,3.1,1.2,4.4c2.5,4.7,8,6.7,12.3,4.4
		c3-1.6-6.5-10.6-0.6-19.1c2.7,2,11.3,13.4,14.3,11.8C151.5,206.8,153,201.1,150.5,196.4z M133.7,200.2l0.4,0.3l-0.3,0.2
		C133.7,200.5,133.7,200.3,133.7,200.2L133.7,200.2z"/>
	<path d="M98.5,319.6c-0.6,3,3,6.3,7.9,7.2s9.5-0.7,10.1-3.7c0.2-1-3.9-30.9-3.9-30.9S98.8,318.2,98.5,319.6z"/>
	<path d="M202.8,308.2c1.4,2.8,6.1,3.2,10.7,1s7.1-6.3,5.8-9c-0.5-0.9-21.8-22.2-21.8-22.2S202.2,307,202.8,308.2z"/>
	<circle class="st3" cx="87.2" cy="64" r="21.7"/>
	<circle class="st3" cx="146.6" cy="49.5" r="10.6"/>
	<circle class="st3" cx="141.1" cy="69.5" r="5.9"/>
	<circle class="st3" cx="68.9" cy="47.4" r="5.9"/>
	<circle class="st3" cx="159.4" cy="77.6" r="3.8"/>
	<path class="st4" d="M27.9,121.9c-6.5-16.6-4.1-33.1,5.5-36.9"/>
	<path d="M107.5,197.8L107.5,197.8c-7.2,2.9-15.3-0.6-18.2-7.8c0,0,0,0,0-0.1l-14.5-36.3c-2.9-7.2,0.6-15.3,7.8-18.2c0,0,0,0,0.1,0
		l0,0c7.2-2.9,15.3,0.6,18.2,7.8c0,0,0,0,0,0.1l14.4,36.3C118.2,186.7,114.8,194.9,107.5,197.8C107.6,197.8,107.5,197.8,107.5,197.8
		z"/>
	<path d="M147.6,181.9L147.6,181.9c-7.2,2.9-15.3-0.6-18.2-7.8c0,0,0,0,0-0.1l-14.4-36.3c-2.9-7.2,0.6-15.3,7.8-18.2c0,0,0,0,0,0
		l0,0c7.2-2.9,15.3,0.6,18.2,7.8c0,0,0,0.1,0,0.1l14.4,36.3C158.3,170.8,154.8,179,147.6,181.9C147.6,181.9,147.6,181.9,147.6,181.9
		z"/>
	<path class="st5" d="M111.4,122.1c0-13.6,5.7-24.6,12.7-24.6"/>
	<path class="st5" d="M95.2,128.1C90,115.5,80.5,107.5,74,110.2"/>
</g>
</svg>
