<svg id="Figurer_copy" data-name="Figurer copy" xmlns="http://www.w3.org/2000/svg" width="350" height="400" viewBox="0 0 350 400">
  <defs>
    <style>
      .cls-1 {
        fill: #87ebf9;
      }

      .cls-2 {
        fill: #fff088;
      }

      .cls-3 {
        fill: #fff;
      }

      .cls-4 {
        fill: #f9a58c;
      }
    </style>
  </defs>
  <title>Baggrundsdesign_RT_02_psyk_2</title>
  <rect class="cls-1" width="350" height="400"/>
  <g>
    <path d="M37.37,212v1.26a15,15,0,0,0,10.4,14.24c5.2,23.67,15,39.32,29.84,47.82,8.14,4.66,17.66,7,28.7,7a97.56,97.56,0,0,0,17.88-1.78c-3.75,40.86-.29,79,9.71,113.39,33.06,1.21,66,1.95,99,1.49q5.94-4.19,11.84-8.38c6-4.26,12.27-8.53,18.51-13-31.46-52.22-36-124.33-6.6-203.72-35.91,1.76-70.1-3.12-105-4.14-12.3,32.1-20.58,63.39-25,93.4-17.09,4.19-30,3.67-39.22-1.6-8.81-5-15.08-14.89-19.12-30a15,15,0,0,0,12.57-14.74V212a15,15,0,0,0-7.81-13.11C69.3,186,70,177.72,71.05,171.79A5,5,0,0,0,61.27,170a57.34,57.34,0,0,0-.91,14.62c-3.86-5.45-5.67-9.48-6-14.4a5,5,0,0,0-9.93.63c.59,9.36,4.75,16,12.87,26.22h-5A15,15,0,0,0,37.37,212Z"/>
    <path class="cls-2" d="M120.45,244c19.08,6,17.43-36.72,72.2-18.05,33.19,11.31,18,35.47,37.38,43,22.11,8.56,18.64-16.09,28.63-17.42,8-1.07-5.22,24.52,11.2,28.63,17.43,4.36,12.49-20.51,18.67-33,4.4-8.89,12.08-7.35,14.31-13.08,8.23-21.05-7.23-27.7-18.67-44.18-10.72-15.47-17.41-41.21-12.44-47.3,19.27-23.65,19.92,21.79,33.6-2.52,9.36-16.59,3.12-58.5-31.29-83.85C248.41,37.35,194.26,39,176.51,61.06s-18,50.41-28.63,75.93-67.54,24.64-68.46,51c-.66,18.07,11.17,13.68,19.88,22.39C109.79,220.9,83.12,232.2,120.45,244Z"/>
    <path d="M269.75,138.58a3.31,3.31,0,0,0,2.41-1.05c1.67-1.72,2.17-5.14,1.67-7.46-.61-3.06,0-8.45,2.33-9.62a.32.32,0,0,0,.14-.42h0a.31.31,0,0,0-.41-.14h0c-2.62,1.31-3.35,7-2.66,10.29.43,2.12,0,5.36-1.54,6.9a2.65,2.65,0,0,1-2.46.84c-1.52-.25-1.45-3-1.38-6,.08-3.4.18-7.26-2.28-8.31-2.26-1-4.1,1.52-6.05,4.19-2.09,2.84-4.26,5.77-7,4.55-3.29-1.46-1.93-6-.72-10.06.73-2.51,1.38-4.68.83-5.92a.3.3,0,0,0-.39-.18h0a.3.3,0,0,0-.17.4h0c.42,1.05-.22,3.22-.91,5.51-1.21,4.08-2.71,9.15,1.07,10.84,3.21,1.42,5.64-1.85,7.77-4.75,1.8-2.44,3.5-4.74,5.31-4,2.07.89,2,4.52,1.9,7.72s-.16,6.27,1.9,6.61A3.75,3.75,0,0,0,269.75,138.58Z"/>
    <path d="M149.64,208.28a3.27,3.27,0,0,0,2.4-1.05c1.67-1.68,2.17-5.14,1.67-7.45-.61-3.07,0-8.47,2.32-9.62a.32.32,0,0,0,.15-.42h0a.32.32,0,0,0-.42-.15c-2.62,1.32-3.35,7-2.66,10.3.43,2.12,0,5.36-1.54,6.91a2.7,2.7,0,0,1-2.46.84c-1.52-.26-1.45-3-1.38-6,.09-3.4.18-7.25-2.28-8.31-2.26-1-4.1,1.53-6.05,4.19-2.09,2.84-4.26,5.77-7,4.55-3.81-1.68-4.64-8.92-5.24-14.19a24.21,24.21,0,0,0-.84-4.93.31.31,0,0,0-.4-.18h0a.32.32,0,0,0-.18.4,24.18,24.18,0,0,1,.84,4.78c.61,5.42,1.46,12.85,5.59,14.69,3.22,1.43,5.64-1.86,7.78-4.75,1.79-2.44,3.49-4.74,5.29-4,2.08.88,2,4.52,1.91,7.72s-.15,6.27,1.91,6.61A3,3,0,0,0,149.64,208.28Z"/>
    <path d="M270.83,211.67a4,4,0,0,0,1.6-.35c4.65-2,3.28-8.5,2-12.21s-7.87-11-8.15-11.31a.33.33,0,0,0-.44,0,.31.31,0,0,0,0,.44h0c.07.07,6.82,7.45,8,11.08s2.51,9.65-1.68,11.44c-3.86,1.68-6.8-4.26-9.17-9l-.39-.78c-2.69-5.4-4.52-8.25-7.05-8.88a.31.31,0,0,0-.37.23h0a.29.29,0,0,0,.22.37h0c2.28.57,4.09,3.44,6.65,8.54l.39.79C264.63,206.37,267.27,211.67,270.83,211.67Z"/>
    <path d="M160.48,139.47c3.57,0,6.2-5.29,8.38-9.66l.39-.79c2.56-5.1,4.37-8,6.65-8.54a.32.32,0,0,0,.22-.38.31.31,0,0,0-.38-.23c-2.51.63-4.35,3.49-7,8.88l-.4.79c-2.36,4.76-5.31,10.67-9.16,9-4.19-1.8-2.86-7.94-1.68-11.44s7.95-11,8-11.09a.31.31,0,0,0-.41-.47.1.1,0,0,0,0,0c-.29.31-6.91,7.54-8.17,11.31s-2.6,10.22,2,12.21A3.86,3.86,0,0,0,160.48,139.47Z"/>
    <path class="cls-3" d="M281.64,235.62c7.16,0,12.77-8.38,12.77-19a3.43,3.43,0,0,0-6.85,0c0,6.94-3.13,12.13-5.92,12.13a3.43,3.43,0,0,0,0,6.85Z"/>
    <path class="cls-3" d="M233.73,263.62c8.9,0,15.87-5,15.87-11.51a3.43,3.43,0,0,0-6.85,0c0,2.2-3.86,4.67-9,4.67a3.42,3.42,0,1,0-.34,6.84Z"/>
    <path class="cls-3" d="M99.3,203.88a3.42,3.42,0,0,0,.34-6.84H99.3c-2.51,0-5.29-4.4-5.29-10.28a3.42,3.42,0,0,0-6.84,0C87.16,196.37,92.49,203.88,99.3,203.88Z"/>
    <path class="cls-3" d="M294.08,136a3.41,3.41,0,0,1,1.95-4.13c1.18-1.81,1.43-10.68-2.26-23.06a3.42,3.42,0,0,1,6.56-2,73.43,73.43,0,0,1,3.35,19.27c.08,7-1.67,11.08-5.32,12.16a3.64,3.64,0,0,1-1,.15A3.43,3.43,0,0,1,294.08,136Z"/>
    <path class="cls-3" d="M268.58,276.07c7.72,0,14-7.12,14-15.87a3.43,3.43,0,1,0-6.85-.33v.33c0,5-3.2,9-7.15,9a3.43,3.43,0,0,0-.34,6.85Z"/>
    <g>
      <path d="M215,171.65c.45-2.63-10.72-17.16-10.72-17.16L193,163.78a6.53,6.53,0,0,0-.62.77,7.85,7.85,0,0,0-1.27,3.11c-.63,3.86,1.68,7.46,5.21,8.05,2.42.4,5.37-5.82,6.81-7.84.7,2.38,2,9.31,4.41,9.71C211,178.16,214.37,175.51,215,171.65Zm-11.42-5.28a1.39,1.39,0,0,0,.1.33l-.28,0Z"/>
      <g>
        <g>
          <path class="cls-3" d="M220.76,166.84a10.27,10.27,0,0,0,1.57-.11,10.89,10.89,0,0,0,9.22-12.32c-5.22-36.15,5-62.09,14-63.4a10.89,10.89,0,1,0-3.11-21.51c-7.73,1.12-21.85,6.7-29.52,31.74-4.85,15.8-5.87,35.8-2.94,56.31A10.9,10.9,0,0,0,220.76,166.84Z"/>
          <path d="M220.68,160.53a4.75,4.75,0,0,0,.84-.06,5.74,5.74,0,0,0,4.86-6.48c-5.2-36,4.76-64.68,16.94-67.88A5.73,5.73,0,1,0,240.4,75c-10.05,2.66-18.2,12.83-22.82,28.65-4.34,14.83-5.25,33.27-2.52,52A5.74,5.74,0,0,0,220.68,160.53Z"/>
          <path class="cls-3" d="M223.94,101.39h0a2.87,2.87,0,0,1-1.05-3.92l4.3-7.44a2.85,2.85,0,0,1,3.91-1h0a2.86,2.86,0,0,1,1.05,3.91l-4.29,7.44A2.87,2.87,0,0,1,223.94,101.39Z"/>
          <rect class="cls-3" x="219.04" y="105" width="6.38" height="5.73" rx="1.93" transform="translate(89.87 316.43) rotate(-83.49)"/>
        </g>
        <g>
          <path class="cls-3" d="M193.26,157.11a11.84,11.84,0,0,0,1.57-.11A10.9,10.9,0,0,0,204,144.66c-2.51-17.14-1.67-34.2,2.2-46.8,2.94-9.6,7.47-15.92,11.82-16.59a10.89,10.89,0,1,0-2.41-21.65l-.7.1c-7.73,1.12-21.85,6.71-29.53,31.75-4.85,15.8-5.86,35.79-2.93,56.3A10.9,10.9,0,0,0,193.26,157.11Z"/>
          <path d="M193.16,150.79q.42,0,.84-.06a5.74,5.74,0,0,0,4.85-6.5h0c-5.19-36,4.77-64.66,17-67.87a5.73,5.73,0,0,0-2-11.29,5.19,5.19,0,0,0-.94.24c-10,2.66-18.2,12.83-22.82,28.65-4.34,14.82-5.25,33.27-2.52,52A5.75,5.75,0,0,0,193.16,150.79Z"/>
          <path class="cls-3" d="M196.43,91.64h0a2.86,2.86,0,0,1-1.05-3.91l4.3-7.44a2.86,2.86,0,0,1,3.91-1.05h0a2.87,2.87,0,0,1,1,3.92l-4.29,7.44A2.86,2.86,0,0,1,196.43,91.64Z"/>
          <rect class="cls-3" x="191.54" y="95.25" width="6.38" height="5.73" rx="1.93" transform="translate(75.17 280.46) rotate(-83.49)"/>
        </g>
        <path d="M279.69,68.59a3.62,3.62,0,0,0-1.72-7,2.91,2.91,0,0,0-.5.16c-.68.21-18.06,9.89-18.06,9.89S278.77,68.88,279.69,68.59Z"/>
        <path d="M241.51,59.06a3,3,0,0,0,.77-4.19c-.9-1.61-2.64-2.37-3.93-1.68-.43.24-10.71,9.82-10.71,9.82S240.92,59.38,241.51,59.06Z"/>
        <path d="M280.38,49.71a4.63,4.63,0,0,0-6.77-6.31c-.58.62-13,21.15-13,21.15S279.58,50.55,280.38,49.71Z"/>
        <path d="M261.16,50.39a2.86,2.86,0,1,0-5.43-1.77,2.9,2.9,0,0,0-.14.77c-.11.59-.08,17.37-.08,17.37S261,51.19,261.16,50.39Z"/>
        <path d="M238.85,39.33c.88-2-.3-4.52-2.64-5.54a4.39,4.39,0,0,0-5.86,1.86c-.29.69-3.94,21.47-3.94,21.47S238.41,40.23,238.85,39.33Z"/>
        <path d="M224.34,40.67a2.42,2.42,0,0,0-4.84-.28v.28c0,.46,2.62,13.3,2.62,13.3S224.34,41.31,224.34,40.67Z"/>
      </g>
      <circle class="cls-4" cx="239.95" cy="179.3" r="11.51" transform="translate(24.54 387.43) rotate(-80.78)"/>
      <circle class="cls-4" cx="172.12" cy="172.45" r="10.27"/>
      <g>
        <path d="M206.43,216.53a22.39,22.39,0,0,0,5.47-.67,21.69,21.69,0,0,0,15.79-16.52,12.16,12.16,0,0,0-22.89-7.85,22.86,22.86,0,0,1-5.21-4.55,12.17,12.17,0,1,0-18.16,16.2h0C191.33,214.21,200.49,216.53,206.43,216.53Z"/>
        <path class="cls-4" d="M190.52,187.43a7.62,7.62,0,0,1,5.67,2.52c4.81,5.38,8.44,6.8,10.23,6.8a2.15,2.15,0,0,0,.62-.07c.9-.23,1.28-1.29,1.42-1.89a7.61,7.61,0,0,1,7.39-5.87,7.27,7.27,0,0,1,1.74.21,7.58,7.58,0,0,1,5.66,9.12h0a17.17,17.17,0,0,1-12.47,13.14,17.69,17.69,0,0,1-4.35.54c-5.32,0-13-2.26-21.58-11.88a7.6,7.6,0,0,1,5.67-12.66m0-9.12a16.72,16.72,0,0,0-12.45,27.89c11,12.34,21.52,14.92,28.39,14.92a27.12,27.12,0,0,0,6.59-.84,26.15,26.15,0,0,0,19.11-19.89,16.76,16.76,0,0,0-12.45-20.11,17,17,0,0,0-3.83-.44,16.68,16.68,0,0,0-12,5c-.29-.29-.58-.61-.89-1a16.74,16.74,0,0,0-12.48-5.58Z"/>
      </g>
      <rect class="cls-3" x="212.88" y="189.56" width="1.87" height="6.85" rx="0.93" transform="translate(-47.27 71.36) rotate(-17.09)"/>
      <rect class="cls-3" x="209.14" y="192.04" width="1.87" height="6.85" rx="0.93" transform="translate(-48.17 70.37) rotate(-17.09)"/>
      <rect class="cls-3" x="194.85" y="194.54" width="6.85" height="1.87" rx="0.93" transform="translate(-76.77 238.73) rotate(-53.53)"/>
      <rect class="cls-3" x="190.49" y="192.05" width="6.85" height="1.87" rx="0.93" transform="translate(-76.54 234.22) rotate(-53.53)"/>
    </g>
  </g>
</svg>
